# xmcd CD database file
#
# Track frame offsets:
#	150
#	29852
#	63836
#	88196
#	109005
#	138427
#	166280
#	178418
#
# Disc length: 2770 seconds
#
# Revision: 0
# Processed by: cddbd v1.5.2PL0 Copyright (c) Steve Scherf et al.
# Submitted via: CDex 1.51
#
DISCID=710ad008
DTITLE=Martin J. Reiter - ALMA
DYEAR=2007
DGENRE=Jazz
TTITLE0=Principessa
TTITLE1=Shabanac
TTITLE2=PhenomenonHENOMENON
TTITLE3=Alma
TTITLE4=Minas Walz
TTITLE5=Pra Frederic
TTITLE6=Ana
TTITLE7=Tupinamba
EXTD=YEAR: 2007
EXTT0=
EXTT1=
EXTT2=
EXTT3=
EXTT4=
EXTT5=
EXTT6=
EXTT7=
PLAYORDER=
